<svg width="18" height="18" viewBox="0 0 18 18" fill="none" xmlns="http://www.w3.org/2000/svg">
<path d="M3.10953 9.91667C2.67873 9.91667 2.44959 9.4082 2.73496 9.08546L8.62543 2.42363C8.82443 2.19856 9.17557 2.19856 9.37457 2.42362L15.265 9.08546C15.5504 9.4082 15.3213 9.91667 14.8905 9.91667H14.75C14.4739 9.91667 14.25 10.1405 14.25 10.4167V13.5833C14.25 13.8595 14.0261 14.0833 13.75 14.0833H11.1667C10.8905 14.0833 10.6667 13.8603 10.6667 13.5841C10.6667 12.8815 10.6667 11.6344 10.6667 11.1667C10.6667 10.5 10 9.5 9 9.5C8 9.5 7.33333 10.5 7.33333 11.1667C7.33333 11.6344 7.33333 12.8815 7.33333 13.5841C7.33333 13.8603 7.10948 14.0833 6.83333 14.0833H4.25C3.97386 14.0833 3.75 13.8595 3.75 13.5833V10.4167C3.75 10.1405 3.52614 9.91667 3.25 9.91667H3.10953Z" fill="white"/>
</svg>
