<?xml version="1.0" encoding="utf-8"?>
<!-- Generator: Adobe Illustrator 22.0.0, SVG Export Plug-In . SVG Version: 6.00 Build 0)  -->
<svg version="1.1" id="Capa_1" xmlns="http://www.w3.org/2000/svg" xmlns:xlink="http://www.w3.org/1999/xlink" x="0px" y="0px"
	 viewBox="0 0 350 350" style="enable-background:new 0 0 350 350;" xml:space="preserve">
<style type="text/css">
	.st0{fill:#FFFFFF;}
</style>
<path class="st0" d="M114.4,182.3c27.6,0,50-27.2,50-60.7s-7.3-60.7-50-60.7s-50,27.2-50,60.7C64.5,155.1,86.8,182.3,114.4,182.3z"
	/>
<path class="st0" d="M19.6,290.9C19.6,288.8,19.6,290.3,19.6,290.9L19.6,290.9z"/>
<path class="st0" d="M299.5,199.7l-42,0.4c-0.6,0-4.9,0.5-5.5,0.7c-6.9,1.8-11.9,7.6-14.1,10.8l-24.1,35.8l-13.2-27.2
	c-0.2-0.5-0.5-1-0.8-1.4l0,0c-9.6-20.9-51.6-25.5-58.9-26.1c-0.4-0.1-0.9-0.2-1.3-0.2c0,0-7.5,9.6-25.1,9.6s-25.1-9.6-25.1-9.6
	C36.4,202,29,223.7,28,275.8c-0.1,4.3-0.1,4.5-0.1,4c0,0.9,0,2.6,0,5.6c0,0,12.7,25.7,86.5,25.7c52.4,0,74-12.9,82.1-20.4
	c0.5-0.4,1.1-0.7,1.4-0.4c5.2,4.4,11.8,6.9,18.7,6c9.7-1.2,14.8-8.4,19.7-15.7c5.9-8.7,11.7-17.4,17.6-26.1
	c5.3-7.9,10.7-15.8,16-23.7l33.1-18.6C309.1,208.6,306.5,199.6,299.5,199.7z"/>
<path class="st0" d="M306.1,80.1H203.6c-7.4,0-13.5,6.1-13.5,13.5v55.5c0,6.8,5.2,12.5,11.8,13.3v10.2c0,4.8,5.2,7.9,9.4,5.4
	l27-15.6H306c7.4,0,13.5-6.1,13.5-13.5V93.5C319.6,86.1,313.5,80.1,306.1,80.1z M275,137.3h-39.6c-9.2,0-16.6-7.3-16.6-16.6
	c0-9.2,7.3-16.6,16.6-16.6H275c9.2,0,16.6,7.3,16.6,16.6C291.6,130,284.3,137.3,275,137.3z"/>
</svg>
